<svg width="35" height="35" viewBox="0 0 35 35" fill="none" xmlns="http://www.w3.org/2000/svg">
<g id="Coin">
<g id="Group">
<g id="Group_2">
<path id="Vector" d="M34.9995 17.4999C34.9995 27.1649 27.1646 34.9998 17.4997 34.9998C12.4048 34.9998 7.81845 32.8227 4.62064 29.3477C3.78066 28.4356 3.0371 27.4334 2.40425 26.3584C0.876415 23.7599 0 20.732 0 17.4999C0 7.83496 7.83488 0 17.4997 0C20.7325 0 23.7603 0.876424 26.3582 2.40499C27.4331 3.03713 28.4346 3.78069 29.3467 4.6214C32.8216 7.81781 34.9995 12.4049 34.9995 17.4999Z" fill="#F0CD00"/>
<path id="Vector_2" d="M34.9998 17.499C34.9998 26.9461 27.515 34.6446 18.1515 34.9868C8.78811 34.6446 1.30322 26.9461 1.30322 17.499C1.30322 8.0519 8.78811 0.353372 18.1515 0.0112305C27.515 0.353372 34.9998 8.0519 34.9998 17.499Z" fill="#FFDE50"/>
<path id="Vector_3" d="M29.3472 4.62169L4.62118 29.348C3.78119 28.4358 3.03763 27.4337 2.40479 26.3587L26.3587 2.40527C27.4337 3.03741 28.4351 3.78098 29.3472 4.62169Z" fill="#FFEA94"/>
<path id="Vector_4" d="M33.7921 11.1023L11.1011 33.7936C9.49465 33.1622 8.00396 32.3 6.67041 31.2479L31.2472 6.6709C32.2993 8.00446 33.1614 9.49517 33.7921 11.1023Z" fill="#FFEA94"/>
<path id="Vector_5" d="M31.0991 17.4999C31.0991 25.0098 25.0106 31.0984 17.5007 31.0984C14.885 31.0984 12.4422 30.3598 10.3687 29.0798C9.46511 28.5227 8.63227 27.862 7.88514 27.1148C7.33586 26.5662 6.83301 25.9698 6.38373 25.3334C5.76517 24.457 5.24732 23.5041 4.84804 22.492C4.25662 20.9956 3.92377 19.3684 3.90377 17.667C3.90234 17.6113 3.90234 17.5556 3.90234 17.4999C3.90234 9.98991 9.99011 3.90137 17.5007 3.90137C17.5564 3.90137 17.6128 3.90137 17.6686 3.9028C19.37 3.9228 20.9964 4.25637 22.4928 4.84708C23.5049 5.24707 24.4577 5.76421 25.3342 6.38278C25.9706 6.83278 26.5663 7.33492 27.1156 7.8842C27.8627 8.63063 28.5234 9.46419 29.0805 10.3678C30.3605 12.4413 31.0991 14.8842 31.0991 17.4999Z" fill="#FAA300"/>
<path id="Vector_6" d="M27.1156 7.8842L7.88514 27.1148C7.33586 26.5662 6.83301 25.9698 6.38373 25.3334C5.76517 24.457 5.24732 23.5041 4.84804 22.492C4.25662 20.9956 3.92377 19.3684 3.90377 17.667C3.90234 17.6113 3.90234 17.5556 3.90234 17.4999C3.90234 9.98991 9.99011 3.90137 17.5007 3.90137C17.5564 3.90137 17.6129 3.90137 17.6686 3.9028C19.37 3.9228 20.9964 4.25637 22.4928 4.84708C23.5049 5.24707 24.4577 5.76421 25.3342 6.38278C25.9706 6.83278 26.5663 7.33492 27.1156 7.8842Z" fill="#FFBD00"/>
<path id="Vector_7" d="M31.0977 17.4999C31.0977 25.0098 25.0092 31.0984 17.4993 31.0984C17.2414 31.0984 16.9857 31.0912 16.7314 31.0769C23.8842 30.6791 29.5612 24.752 29.5612 17.4999C29.5612 10.2478 23.8842 4.32065 16.7314 3.9228C16.9857 3.90851 17.2414 3.90137 17.4993 3.90137C25.0092 3.90137 31.0977 9.98991 31.0977 17.4999Z" fill="#F68E00"/>
</g>
</g>
</g>
</svg>
