<svg width="40" height="40" viewBox="0 0 40 40" fill="none" xmlns="http://www.w3.org/2000/svg">
<circle cx="19.9998" cy="24.9998" r="3.33333" fill="#070E1E"/>
<path d="M7.5 19.8335C7.5 17.9479 7.5 17.0051 8.08579 16.4193C8.67157 15.8335 9.61438 15.8335 11.5 15.8335H28.5C30.3856 15.8335 31.3284 15.8335 31.9142 16.4193C32.5 17.0051 32.5 17.9479 32.5 19.8335V28.1668C32.5 30.9953 32.5 32.4095 31.6213 33.2882C30.7426 34.1668 29.3284 34.1668 26.5 34.1668H13.5C10.6716 34.1668 9.25736 34.1668 8.37868 33.2882C7.5 32.4095 7.5 30.9953 7.5 28.1668V19.8335Z" stroke="#070E1E" stroke-width="2"/>
<path d="M27.5 15.8335V13.3335C27.5 11.0038 27.5 9.83893 27.1194 8.92008C26.6119 7.69494 25.6386 6.72157 24.4134 6.2141C23.4946 5.8335 22.3297 5.8335 20 5.8335V5.8335C17.6703 5.8335 16.5054 5.8335 15.5866 6.2141C14.3614 6.72157 13.3881 7.69494 12.8806 8.92008C12.5 9.83893 12.5 11.0038 12.5 13.3335V15.8335" stroke="#070E1E" stroke-width="2" stroke-linecap="round"/>
</svg>
