<svg xmlns="http://www.w3.org/2000/svg" width="46" height="34" viewBox="0 0 46 34" fill="none">
<path d="M39.5833 0H6.25C4.5924 0 3.00269 0.658481 1.83058 1.83058C0.65848 3.00269 0 4.5924 0 6.25V27.0833C0 28.7409 0.65848 30.3307 1.83058 31.5028C3.00269 32.6749 4.5924 33.3333 6.25 33.3333H39.5833C41.2409 33.3333 42.8307 32.6749 44.0028 31.5028C45.1749 30.3307 45.8333 28.7409 45.8333 27.0833V6.25C45.8333 4.5924 45.1749 3.00269 44.0028 1.83058C42.8307 0.658481 41.2409 0 39.5833 0ZM6.25 4.16667H39.5833C40.1359 4.16667 40.6658 4.38616 41.0565 4.77686C41.4472 5.16756 41.6667 5.69747 41.6667 6.25V8.33333H4.16667V6.25C4.16667 5.69747 4.38616 5.16756 4.77686 4.77686C5.16756 4.38616 5.69747 4.16667 6.25 4.16667ZM39.5833 29.1667H6.25C5.69747 29.1667 5.16756 28.9472 4.77686 28.5565C4.38616 28.1658 4.16667 27.6359 4.16667 27.0833V16.6667H41.6667V27.0833C41.6667 27.6359 41.4472 28.1658 41.0565 28.5565C40.6658 28.9472 40.1359 29.1667 39.5833 29.1667Z" fill="black"/>
</svg>